<svg xmlns="http://www.w3.org/2000/svg" width="500" height="500" fill="none" viewBox="0 0 500 500"><path fill="#fff" d="M0 0h500v500H0z"/><path fill="#280A0B" d="M500.64 93.25a6.1 6.1 0 0 0-.55-1.95c-.11-.2-.15-.4-.3-.55-.1-.1-.1-.25-.2-.35-.45-.55-1.05-1-1.66-1.3-.05 0-.05-.05-.05-.05-.1-.05-.2 0-.3-.05a5.72 5.72 0 0 0-2.1-.35c-.25 0-.45 0-.7.05-.8.14-1.6.45-2.26 1L250.37 289.93 8.22 89.7c-.7-.55-1.5-.86-2.32-1-.2-.05-.39-.05-.59-.05a4.56 4.56 0 0 0-2.16.35c-.1.05-.2 0-.25.05-.04 0-.04.05-.04.05-.6.3-1.2.7-1.65 1.3-.1.1-.1.25-.21.35-.14.2-.2.35-.3.55-.3.6-.5 1.25-.55 1.95 0 .15-.1.25-.1.35v331.82a5 5 0 0 0 10.02 0v-321.2l82.96 68.57a175.97 175.97 0 0 0-19.92 81.14c0 97.31 79.57 176.5 177.31 176.5 97.75 0 177.26-79.15 177.3-176.4v-.1c0-2.75-2.25-5-5-5h-63.49c-2.76 0-5 2.25-5 5s2.24 5 5 5h58.19c-2.7 89.5-76.52 161.48-167.05 161.48-92.24 0-167.3-74.68-167.3-166.48 0-25.88 6.2-51.51 17.83-74.58L247.2 300.3c.16.14.35.2.55.3.15.1.3.25.45.29.11.05.2.05.3.1l.4.15c.15.06.3.06.5.1h.1c.21.05.45.11.66.11.1 0 .14.04.25.04.1 0 .2-.04.3-.04.2 0 .4-.06.6-.11h.04c.21-.05.41-.04.6-.1.16-.04.26-.1.36-.14.1-.06.2-.06.3-.11l.45-.3c.2-.1.36-.15.55-.3l237.1-196.07v321.2a5 5 0 0 0 10.02 0V93.6c0-.14-.1-.24-.1-.35Z"/><path fill="#280A0B" d="M144.5 123.63c1.06 0 2.16-.35 3.06-1.05a166.86 166.86 0 0 1 102.8-35.14c37.56 0 73.12 12.12 102.81 35.04a4.96 4.96 0 0 0 7.01-.9 4.98 4.98 0 0 0-.9-7 176.71 176.71 0 0 0-108.91-37.15 176.4 176.4 0 0 0-108.9 37.24 4.98 4.98 0 0 0 3.04 8.96Z"/></svg>
