<svg>
  <symbol id="arrow-left" xmlns="http://www.w3.org/2000/svg" fill="none" viewBox="0 0 58 6"><path fill="currentColor" d="m0 3 5 2.89V.1L0 3Zm58-.5H4.5v1H58v-1Z"/></symbol>

  <symbol id="arrow-right" xmlns="http://www.w3.org/2000/svg" fill="none" viewBox="0 0 58 6"><path fill="currentColor" d="M58 3 53 .11V5.9L58 3ZM0 3.5h53.5v-1H0v1Z"/></symbol>

  <symbol id="arrow-down" xmlns="http://www.w3.org/2000/svg" fill="none" viewBox="0 0 8 73"><path fill="currentColor" d="M3.65 72.35c.2.2.5.2.7 0l3.19-3.18a.5.5 0 1 0-.71-.7L4 71.28l-2.83-2.83a.5.5 0 1 0-.7.71l3.18 3.18ZM3.5 0v72h1V0h-1Z"/></symbol>

  <symbol id="chevron-left" xmlns="http://www.w3.org/2000/svg" fill="none" viewBox="0 0 32 32"><path fill="currentColor" d="m14.28 16 6.13 6.13-.94.95L12.39 16l7.08-7.08.94.95L14.28 16Z"/></symbol>

  <symbol id="chevron-right" xmlns="http://www.w3.org/2000/svg" fill="none" viewBox="0 0 24 24"><path fill="currentColor" d="M13.3 12 8.7 7.4l.7-.7 5.3 5.3-5.3 5.3-.7-.7 4.6-4.6Z"/></symbol>

  <symbol id="chevron-down" xmlns="http://www.w3.org/2000/svg" fill="none" viewBox="0 0 24 24"><path fill="currentColor" d="m12 13.3 4.6-4.6.7.7-5.3 5.3-5.3-5.3.7-.7 4.6 4.6Z"/></symbol>

  <symbol id="instagram" xmlns="http://www.w3.org/2000/svg" fill="none" viewBox="0 0 24 24"><path fill="currentColor" d="M12 1c-2.99 0-3.36.01-4.53.07a8.07 8.07 0 0 0-2.67.5c-.73.29-1.34.66-1.95 1.28a5.4 5.4 0 0 0-1.27 1.94c-.28.7-.46 1.5-.51 2.67A79.09 79.09 0 0 0 1 12c0 2.99.01 3.36.07 4.53.05 1.18.24 1.97.5 2.67.29.73.66 1.34 1.28 1.95.6.61 1.22 1 1.94 1.27.7.27 1.5.46 2.67.51C8.64 23 9.01 23 12 23s3.36-.01 4.53-.07a8.08 8.08 0 0 0 2.68-.5 5.38 5.38 0 0 0 1.94-1.28 5.4 5.4 0 0 0 1.27-1.95c.27-.7.46-1.5.51-2.67C23 15.36 23 15 23 12s-.01-3.36-.07-4.54a8.15 8.15 0 0 0-.5-2.67 5.4 5.4 0 0 0-1.28-1.94 5.38 5.38 0 0 0-1.95-1.27 8.1 8.1 0 0 0-2.67-.51A78.04 78.04 0 0 0 12 1Zm-.99 1.98h1c2.93 0 3.28.01 4.44.07 1.07.04 1.65.22 2.04.37.51.2.88.44 1.26.83.39.38.63.75.83 1.26.15.39.33.97.37 2.04.06 1.16.07 1.51.07 4.45 0 2.93-.01 3.28-.07 4.44a6.08 6.08 0 0 1-.37 2.04c-.2.52-.44.88-.83 1.27a3.4 3.4 0 0 1-1.26.82c-.39.15-.97.33-2.04.38-1.16.05-1.51.06-4.45.06-2.94 0-3.28 0-4.44-.06a6.1 6.1 0 0 1-2.05-.38 3.4 3.4 0 0 1-1.26-.82 3.4 3.4 0 0 1-.82-1.27 6.08 6.08 0 0 1-.38-2.04 76.9 76.9 0 0 1-.07-4.45c0-2.93.01-3.28.07-4.44.05-1.07.22-1.65.38-2.04.2-.51.43-.88.82-1.27.38-.38.75-.62 1.26-.82.4-.15.97-.33 2.05-.38C8.57 3 8.96 2.98 11 2.98Zm6.86 1.83a1.32 1.32 0 1 0 0 2.64 1.32 1.32 0 0 0 0-2.64ZM12 6.35a5.65 5.65 0 1 0 0 11.3 5.65 5.65 0 0 0 0-11.3Zm0 1.98a3.67 3.67 0 1 1 0 7.34 3.67 3.67 0 0 1 0-7.34Z"/></symbol>

  <symbol id="x" xmlns="http://www.w3.org/2000/svg" fill="none" viewBox="0 0 24 24"><path fill="currentColor" d="M14.1 10.32 22.29 1h-1.94l-7.12 8.09L7.55 1H1l8.59 12.23L1 23h1.94l7.51-8.54 6 8.54H23M3.64 2.43h2.98l13.72 19.2h-2.98"/></symbol>

  <symbol id="facebook" xmlns="http://www.w3.org/2000/svg" fill="none" viewBox="0 0 24 24"><path fill="currentColor" d="m17.23 13.16.58-3.82h-3.4V6.67c0-1.1.4-1.91 1.93-1.91H18V1.27c-.9-.13-1.92-.27-2.81-.27-2.95 0-5 1.91-5 5.33v3H7v3.83h3.2v9.64a11.04 11.04 0 0 0 4.22 0v-9.64h2.81Z"/></symbol>

  <symbol id="linkedin" xmlns="http://www.w3.org/2000/svg" fill="none" viewBox="0 0 24 24"><path fill="currentColor" fill-rule="evenodd" d="M22 22h-4.1v-7c0-1.92-.74-3-2.26-3-1.65 0-2.51 1.13-2.51 3v7H9.17V8.67h3.96v1.8s1.19-2.21 4.02-2.21c2.83 0 4.85 1.73 4.85 5.3V22ZM4.44 6.92A2.45 2.45 0 0 1 2 4.46C2 3.1 3.1 2 4.44 2 5.8 2 6.88 3.1 6.88 4.46c0 1.36-1.09 2.46-2.44 2.46ZM2.4 22h4.13V8.67H2.4V22Z" clip-rule="evenodd"/></symbol>

  <symbol id="phone" xmlns="http://www.w3.org/2000/svg" fill="none" viewBox="0 0 32 32"><path fill="currentColor" d="M25.44 15.28a9.6 9.6 0 0 0-2.87-6.4A9.6 9.6 0 0 0 16.15 6V4.67a10.93 10.93 0 0 1 7.37 3.24 11.21 11.21 0 0 1 3.25 7.37h-1.33Zm-5.34 0a4.65 4.65 0 0 0-3.95-3.95V10c1.4.14 2.6.7 3.58 1.7.98.99 1.55 2.18 1.7 3.58H20.1Zm5.14 11.39a16 16 0 0 1-6.91-1.7 23.83 23.83 0 0 1-6.6-4.73 24.16 24.16 0 0 1-4.7-6.58 15.92 15.92 0 0 1-1.7-6.9c0-.4.14-.74.4-1.01.27-.28.6-.42 1-.42h3.3c.36 0 .68.12.95.35.27.22.45.52.55.87l.66 3.18c.06.38.05.7-.03.98-.09.28-.24.5-.45.68L8.8 14.12c.54 1 1.15 1.92 1.81 2.77a22.89 22.89 0 0 0 7.56 6.47l2.85-2.9c.22-.24.46-.4.73-.47.27-.07.57-.09.9-.04l2.8.57c.37.1.66.27.89.55.22.28.34.6.34.95v3.25a1.4 1.4 0 0 1-1.43 1.4ZM8.16 12.87l2.56-2.35a.48.48 0 0 0 .17-.28.62.62 0 0 0-.02-.34l-.59-2.82a.55.55 0 0 0-.18-.31.52.52 0 0 0-.33-.1H7.03a.35.35 0 0 0-.36.36c.03.9.17 1.86.43 2.85.26 1 .62 1.99 1.06 3Zm11.27 11.11c.9.45 1.86.78 2.88 1 1.02.2 1.9.32 2.66.34.1 0 .2-.04.26-.1.07-.07.1-.16.1-.26v-2.68a.52.52 0 0 0-.1-.33.55.55 0 0 0-.3-.18l-2.47-.5a.42.42 0 0 0-.27-.02.65.65 0 0 0-.25.17l-2.51 2.56Z"/></symbol>

  <symbol id="person" xmlns="http://www.w3.org/2000/svg" fill="none" viewBox="0 0 24 24"><path fill="currentColor" d="M12 11.38c-.82 0-1.53-.29-2.12-.88A2.89 2.89 0 0 1 9 8.38c0-.82.3-1.53.88-2.11.59-.6 1.3-.89 2.12-.89.82 0 1.53.3 2.12.89.59.58.88 1.29.88 2.11 0 .83-.3 1.54-.88 2.12-.59.6-1.3.88-2.12.88Zm-7 7.24v-1.65c0-.41.12-.8.36-1.16.24-.36.56-.64.97-.84.94-.45 1.89-.79 2.83-1.02a12.14 12.14 0 0 1 5.68 0c.94.23 1.89.57 2.83 1.02.4.2.73.48.97.84s.36.75.36 1.16v1.65H5Z"/></symbol>

  <symbol id="close" xmlns="http://www.w3.org/2000/svg" fill="none" viewBox="0 0 32 32"><path fill="currentColor" d="m8.53 24.41-.94-.94L15.06 16 7.59 8.53l.94-.94L16 15.06l7.47-7.47.94.94L16.94 16l7.47 7.47-.94.94L16 16.94l-7.47 7.47Z"/></symbol>

  <symbol id="play" xmlns="http://www.w3.org/2000/svg" fill="none" viewBox="0 0 32 32"><path fill="currentColor" d="M12 22.92V9.08L22.87 16 12 22.92Zm1.33-2.45L20.38 16l-7.05-4.47v8.94Z"/></symbol>

  <symbol id="download" xmlns="http://www.w3.org/2000/svg" fill="none" viewBox="0 0 32 32"><path fill="currentColor" d="m16 20.77-4.72-4.72.95-.96 3.1 3.11V6.67h1.34V18.2l3.1-3.1.95.95L16 20.77Zm-7.18 4.56a2.09 2.09 0 0 1-2.15-2.15v-3.23H8v3.23c0 .2.09.4.26.56.17.17.36.26.56.26h14.36c.2 0 .4-.09.56-.26a.78.78 0 0 0 .26-.56v-3.23h1.33v3.23a2.09 2.09 0 0 1-2.15 2.15H8.82Z"/></symbol>

  <symbol id="box" xmlns="http://www.w3.org/2000/svg" fill="none" viewBox="0 0 32 32"><path fill="currentColor" d="m14.92 25.5-6.51-3.78a2.1 2.1 0 0 1-1.08-1.86v-7.57a2.12 2.12 0 0 1 1.08-1.86l6.51-3.78a2.13 2.13 0 0 1 2.16 0l6.51 3.78a2.1 2.1 0 0 1 1.08 1.86v7.57a2.12 2.12 0 0 1-1.08 1.86l-6.51 3.79a2.13 2.13 0 0 1-2.16 0Zm.41-1.3v-7.77l-6.66-3.79v7.22c0 .14.03.26.1.38s.17.23.3.31l6.26 3.66Zm1.34 0 6.25-3.65a.88.88 0 0 0 .31-.3c.07-.13.1-.25.1-.4v-7.2l-6.66 3.78v7.78ZM4 9.34V6.15c0-.6.21-1.1.63-1.52.42-.42.93-.63 1.52-.63h3.18v1.33H6.15a.8.8 0 0 0-.59.23.8.8 0 0 0-.23.6v3.17H4ZM9.33 28H6.15c-.6 0-1.1-.21-1.52-.63A2.08 2.08 0 0 1 4 25.85v-3.18h1.33v3.18c0 .24.08.43.23.59a.8.8 0 0 0 .6.23h3.17V28Zm13.34 0v-1.33h3.18a.8.8 0 0 0 .59-.23.8.8 0 0 0 .23-.6v-3.17H28v3.18c0 .6-.21 1.1-.63 1.52-.42.42-.93.63-1.52.63h-3.18Zm4-18.67V6.15a.8.8 0 0 0-.23-.59.8.8 0 0 0-.6-.23h-3.17V4h3.18c.6 0 1.1.21 1.52.63.42.42.63.93.63 1.52v3.18h-1.33ZM16 15.3l6.65-3.85-6.24-3.6a.77.77 0 0 0-.41-.12.77.77 0 0 0-.41.13l-6.24 3.6L16 15.28Z"/></symbol>

  <symbol id="wi-fi" xmlns="http://www.w3.org/2000/svg" fill="none" viewBox="0 0 40 40"><path fill="currentColor" d="M20 34.04c-.72 0-1.32-.25-1.82-.75s-.74-1.1-.74-1.82c0-.71.24-1.32.74-1.82s1.1-.74 1.82-.74 1.32.25 1.82.74c.5.5.74 1.1.74 1.82s-.24 1.33-.74 1.82c-.5.5-1.1.75-1.82.75Zm-9.42-8.46-1.7-1.72a16.03 16.03 0 0 1 5-3.4c1.9-.82 3.94-1.23 6.13-1.23 2.18 0 4.22.41 6.11 1.23 1.89.83 3.56 1.97 5 3.42l-1.7 1.7a13.52 13.52 0 0 0-4.25-2.87A12.91 12.91 0 0 0 20 21.67c-1.83 0-3.56.34-5.17 1.04-1.6.7-3.02 1.65-4.25 2.87ZM3.5 18.5l-1.7-1.7a26.1 26.1 0 0 1 8.12-5.54A24.87 24.87 0 0 1 20 9.23c3.62 0 6.98.68 10.08 2.03a26.1 26.1 0 0 1 8.13 5.53L36.5 18.5a23.51 23.51 0 0 0-7.44-5.02A22.76 22.76 0 0 0 20 11.67c-3.22 0-6.24.6-9.06 1.8A23.51 23.51 0 0 0 3.5 18.5Z"/></symbol>

  <symbol id="live-tv" xmlns="http://www.w3.org/2000/svg" fill="none" viewBox="0 0 40 40"><path fill="currentColor" d="m16.67 24.3 9.3-5.97-9.3-5.96V24.3ZM15 33.32V30H7.7a2.6 2.6 0 0 1-1.93-.77A2.6 2.6 0 0 1 5 27.3V9.36c0-.77.26-1.4.77-1.92a2.6 2.6 0 0 1 1.92-.77h24.62c.76 0 1.4.25 1.92.77.51.51.77 1.15.77 1.92V27.3c0 .76-.26 1.4-.77 1.92a2.6 2.6 0 0 1-1.92.77H25v3.33H15Zm-7.3-5h24.6c.26 0 .5-.1.71-.32a.98.98 0 0 0 .32-.7V9.36c0-.26-.1-.5-.32-.7a.98.98 0 0 0-.7-.33H7.69c-.25 0-.49.11-.7.32a.98.98 0 0 0-.32.7v17.96c0 .25.1.49.32.7.21.22.45.32.7.32Z"/></symbol>

  <symbol id="airport" xmlns="http://www.w3.org/2000/svg" fill="none" viewBox="0 0 48 48"><path fill="currentColor" d="m31.55 42.18-5.2-8.8H20c-.39 0-.71-.13-.98-.4s-.4-.6-.4-.98c0-.39.13-.71.4-.98s.6-.4.98-.4h6.35l5.2-8.8h1.04l-2.6 8.8h6.82l1.5-2h.84l-1 3.38 1 3.38h-.84l-1.5-2h-6.82l2.6 8.8h-1.04Zm-16.14-16 2.6-8.8h-6.82l-1.5 2h-.84l1-3.38-1-3.38h.84l1.5 2h6.82l-2.6-8.8h1.04l5.2 8.8H28c.39 0 .71.13.98.4s.4.6.4.98c0 .39-.13.71-.4.98s-.6.4-.98.4h-6.35l-5.2 8.8h-1.04Z"/></symbol>

  <symbol id="cup" xmlns="http://www.w3.org/2000/svg" fill="none" viewBox="0 0 48 48"><path fill="currentColor" d="M16.77 40v-2H23v-7.5a9.4 9.4 0 0 1-4.63-2.22 8.9 8.9 0 0 1-2.72-4.3 8.93 8.93 0 0 1-5.41-2.6A7.31 7.31 0 0 1 8 16v-2c0-.54.2-1 .6-1.4.4-.4.86-.6 1.4-.6h5.3V8h17.4v4H38c.54 0 1 .2 1.4.6.4.4.6.86.6 1.4v2c0 2.1-.75 3.89-2.24 5.38a8.93 8.93 0 0 1-5.4 2.6 8.9 8.9 0 0 1-2.73 4.3A9.4 9.4 0 0 1 25 30.5V38h6.23v2H16.77ZM15.3 21.83V14H10v2c0 1.52.5 2.83 1.52 3.93a5.95 5.95 0 0 0 3.79 1.9Zm8.69 6.7c1.85 0 3.41-.63 4.7-1.91a6.38 6.38 0 0 0 1.92-4.7V10H17.38v11.92c0 1.85.65 3.41 1.93 4.7A6.39 6.39 0 0 0 24 28.54Zm8.7-6.7a5.95 5.95 0 0 0 3.78-1.9A5.57 5.57 0 0 0 38 16v-2h-5.3v7.83Z"/></symbol>

  <symbol id="tactic" xmlns="http://www.w3.org/2000/svg" fill="none" viewBox="0 0 48 48"><path fill="currentColor" d="m32.22 40-1.37-1.38 3.15-3.2-3.15-3.15 1.37-1.42 3.2 3.2 3.15-3.2L40 32.27l-3.2 3.15 3.2 3.2L38.57 40l-3.15-3.15-3.2 3.15ZM13 38c.82 0 1.53-.3 2.12-.88.59-.6.88-1.3.88-2.12 0-.82-.3-1.53-.88-2.12A2.89 2.89 0 0 0 13 32c-.82 0-1.53.3-2.12.88-.59.6-.88 1.3-.88 2.12 0 .82.3 1.53.88 2.12.6.59 1.3.88 2.12.88Zm0 2a4.82 4.82 0 0 1-3.54-1.46A4.82 4.82 0 0 1 8 35c0-1.38.49-2.56 1.46-3.54A4.82 4.82 0 0 1 13 30a4.88 4.88 0 0 1 4.87 3.95 5.87 5.87 0 0 0 3.92-1.92A5.74 5.74 0 0 0 23.4 28v-7.42c0-2.49.87-4.6 2.63-6.37a8.67 8.67 0 0 1 6.36-2.63h3.77L32 7.43 33.42 6 40 12.58l-6.58 6.57L32 17.78l4.1-4.2h-3.72c-1.94 0-3.6.68-4.96 2.04a6.75 6.75 0 0 0-2.04 4.96V28c0 2.1-.72 3.9-2.17 5.42a8.07 8.07 0 0 1-5.32 2.55 4.77 4.77 0 0 1-1.71 2.9A4.88 4.88 0 0 1 13 40ZM9.38 17.15 8 15.78l3.15-3.2L8 9.43 9.38 8l3.2 3.2L15.73 8l1.42 1.43-3.2 3.15 3.2 3.2-1.42 1.37L12.58 14l-3.2 3.15Z"/></symbol>

  <symbol id="menu" xmlns="http://www.w3.org/2000/svg" fill="none" viewBox="0 0 32 32"><path fill="currentColor" d="M5.33 23.03v-1.34h21.34v1.34H5.33Zm0-6.36v-1.34h21.34v1.34H5.33Zm0-6.36V8.97h21.34v1.34H5.33Z"/></symbol>
</svg>
