<svg>
  <symbol id="logo" xmlns="http://www.w3.org/2000/svg" fill="none" viewBox="0 0 120 120">
    <path fill="currentColor" d="m3.95 93.78-3.03-7.9H.87c.05.62.08 1.37.08 2.23v5.67H0v-8.92h1.56l2.83 7.36h.05l2.84-7.36h1.55v8.92H7.8v-5.75c0-.66.03-1.37.09-2.15h-.05l-3.05 7.9h-.84ZM19.46 89.1h3.04v4.35a9.06 9.06 0 0 1-3.14.45c-1.35 0-2.4-.4-3.15-1.2a4.75 4.75 0 0 1-1.14-3.38c0-.92.19-1.74.56-2.43.37-.7.91-1.24 1.61-1.6a5.2 5.2 0 0 1 2.46-.56c.96 0 1.84.18 2.66.53l-.4.91a5.91 5.91 0 0 0-2.32-.51c-1.1 0-1.94.32-2.55.97-.61.65-.91 1.54-.91 2.7 0 1.2.3 2.11.88 2.73.59.62 1.45.93 2.59.93a7.7 7.7 0 0 0 1.81-.2v-2.75h-2v-.94ZM42.02 93.78l-1.11-2.83h-3.58l-1.1 2.83h-1.05l3.53-8.96h.87l3.51 8.96h-1.07Zm-1.43-3.77-1.04-2.76c-.14-.35-.28-.78-.42-1.29-.1.4-.22.82-.38 1.29L37.7 90h2.89ZM53.67 84.86h1.12l-3.21 8.92h-1.03l-3.2-8.92h1.1l2.05 5.77c.24.67.43 1.31.56 1.94.15-.66.34-1.32.58-1.97l2.03-5.74ZM60.28 93.78v-8.92h1.03v8.92h-1.03ZM73.63 93.78l-1.1-2.83h-3.58l-1.1 2.83H66.8l3.53-8.96h.87l3.5 8.96h-1.07Zm-1.43-3.77-1.03-2.76c-.14-.35-.28-.78-.42-1.29-.1.4-.22.82-.39 1.29L69.32 90h2.88ZM82.94 93.78h-1.03v-8h-2.83v-.92h6.69v.92h-2.83v8ZM91.38 93.78v-8.92h1.03v8.92h-1.03ZM106.87 89.31a4.9 4.9 0 0 1-1.1 3.37 3.8 3.8 0 0 1-3 1.22c-1.31 0-2.33-.4-3.04-1.2a4.95 4.95 0 0 1-1.08-3.4 4.9 4.9 0 0 1 1.08-3.38c.71-.8 1.73-1.2 3.05-1.2 1.28 0 2.28.4 3 1.22a4.92 4.92 0 0 1 1.09 3.37Zm-7.11 0c0 1.21.25 2.13.76 2.75.52.62 1.27.93 2.25.93s1.73-.3 2.23-.93c.51-.62.76-1.54.76-2.75 0-1.2-.25-2.1-.75-2.73-.5-.62-1.24-.93-2.23-.93s-1.74.31-2.26.94c-.5.62-.76 1.53-.76 2.72ZM120.08 93.78h-1.18l-4.88-7.48h-.04c.06.87.09 1.68.09 2.41v5.07h-.95v-8.92h1.16l4.87 7.46h.05l-.05-1.06c-.03-.6-.04-1.02-.04-1.28v-5.12h.97v8.92ZM91.77 28.19a.75.75 0 0 0-.07-.25l-.04-.07c0-.01 0-.03-.02-.04a.64.64 0 0 0-.21-.17l-.04-.01a.76.76 0 0 0-.27-.05l-.09.01c-.1.02-.2.06-.29.13l-30.7 25.38-30.7-25.38a.67.67 0 0 0-.3-.13h-.07a.6.6 0 0 0-.27.04h-.03l-.01.01a.58.58 0 0 0-.21.17l-.03.04-.03.07a.64.64 0 0 0-.07.25l-.02.04V70.3a.64.64 0 0 0 1.27 0V29.58l10.52 8.7a22.32 22.32 0 0 0-2.52 10.28 22.46 22.46 0 0 0 22.48 22.38 22.45 22.45 0 0 0 22.48-22.37v-.01a.64.64 0 0 0-.64-.63h-8.05a.64.64 0 0 0 0 1.26h7.38a21.18 21.18 0 0 1-21.18 20.48 21.18 21.18 0 0 1-21.2-21.11c-.01-3.28.78-6.53 2.25-9.46l18.55 15.34c.02.02.05.02.07.03.02.02.04.04.06.04l.04.02c.02 0 .03 0 .05.02H59.93l.09.02h.07l.07-.01.08-.01.05-.02.04-.02c.02 0 .03-.02.05-.04.03 0 .05-.01.07-.03l30.07-24.86V70.3a.64.64 0 0 0 1.27 0V28.23l-.02-.04Z" />
    <path fill="currentColor" d="M46.62 32.04c.13 0 .27-.04.39-.13a21.14 21.14 0 0 1 13.03-4.46c4.76 0 9.27 1.54 13.04 4.45.27.21.67.16.88-.12a.63.63 0 0 0-.11-.89 22.4 22.4 0 0 0-13.8-4.7c-5.05 0-9.82 1.62-13.82 4.71a.63.63 0 0 0 .39 1.14Z" />
  </symbol>
</svg>
