<svg xmlns="http://www.w3.org/2000/svg" style="display: none;">
  <symbol id="mgpartners-logo" viewBox="0 0 138 138" fill="none">
    <path d="M3.71941 101.193L0.86451 93.7409H0.817599C0.871212 94.3307 0.898019 95.0327 0.898019 95.8452V101.193H0V92.7826H1.46766L4.13491 99.7188H4.18182L6.86247 92.7826H8.32343V101.193H7.35169V95.7715C7.35169 95.1516 7.3785 94.4764 7.43211 93.7476H7.3852L4.5102 101.193H3.71941Z" fill="#1E517B"/>
    <path d="M18.3419 96.7835H21.2035V100.878C20.7612 101.022 20.3089 101.129 19.8498 101.2C19.3891 101.27 18.8546 101.307 18.2481 101.307C16.9748 101.307 15.983 100.93 15.2726 100.175C14.5622 99.4156 14.207 98.355 14.207 96.9912C14.207 96.1167 14.3813 95.3493 14.7298 94.6926C15.0816 94.0325 15.5892 93.5298 16.251 93.1847C16.9111 92.8362 17.6852 92.662 18.5698 92.662C19.4678 92.662 20.3022 92.8279 21.0762 93.1579L20.7009 94.0224C19.9403 93.6974 19.2098 93.5332 18.5095 93.5332C17.4808 93.5332 16.6799 93.8398 16.1036 94.4513C15.5306 95.0595 15.2458 95.9056 15.2458 96.9912C15.2458 98.1272 15.5222 98.9867 16.0768 99.5714C16.6297 100.158 17.4439 100.449 18.5162 100.449C19.1009 100.449 19.6705 100.382 20.2251 100.248V97.6614H18.3419V96.7835Z" fill="#1E517B"/>
    <path d="M35.5357 94.458C35.5357 94.7227 35.6044 94.974 35.7434 95.2153C35.8808 95.4532 36.1187 95.7414 36.4538 96.0798C36.9497 95.795 37.2932 95.5286 37.4858 95.2823C37.6768 95.0377 37.774 94.7562 37.774 94.4379C37.774 94.143 37.6752 93.9051 37.4791 93.7208C37.2814 93.5332 37.0184 93.4394 36.6883 93.4394C36.3482 93.4394 36.0718 93.5315 35.8573 93.7141C35.6429 93.8984 35.5357 94.1464 35.5357 94.458ZM36.427 100.449C37.3518 100.449 38.1191 100.154 38.7323 99.5646L36.2192 97.1252C35.7903 97.3849 35.4854 97.6011 35.3078 97.7753C35.1336 97.9462 35.0029 98.1288 34.9191 98.3248C34.8387 98.5175 34.7985 98.7387 34.7985 98.9883C34.7985 99.4407 34.9459 99.7975 35.2408 100.061C35.539 100.32 35.9344 100.449 36.427 100.449ZM33.8066 99.0151C33.8066 98.5158 33.9373 98.0735 34.202 97.6882C34.4701 97.3045 34.9493 96.9175 35.6429 96.5288C35.3162 96.1636 35.095 95.8854 34.9794 95.6978C34.8621 95.5102 34.7683 95.3158 34.698 95.1148C34.6309 94.9104 34.5974 94.6976 34.5974 94.4781C34.5974 93.9018 34.7851 93.4528 35.1604 93.1311C35.5357 92.8094 36.0584 92.6486 36.7286 92.6486C37.3485 92.6486 37.8377 92.8094 38.1962 93.1311C38.5531 93.4528 38.7323 93.9001 38.7323 94.4714C38.7323 94.8785 38.6 95.2555 38.3369 95.604C38.0773 95.9525 37.6467 96.306 37.0435 96.6628L39.3891 98.9079C39.6036 98.6717 39.7728 98.3952 39.8984 98.0769C40.0274 97.7552 40.1363 97.405 40.2268 97.0247H41.1918C40.9322 98.1204 40.5384 98.9514 40.0124 99.5177L41.7347 101.193H40.4144L39.3489 100.168C38.8965 100.575 38.4375 100.868 37.9684 101.046C37.5026 101.22 36.9832 101.307 36.4069 101.307C35.5792 101.307 34.9392 101.104 34.4835 100.697C34.0311 100.292 33.8066 99.7305 33.8066 99.0151Z" fill="#1E517B"/>
    <path d="M59.3337 95.2354C59.3337 96.0848 59.0421 96.7399 58.4624 97.199C57.8811 97.6547 57.0501 97.8825 55.9694 97.8825H54.9776V101.193H54.0059V92.7826H56.1839C58.2832 92.7826 59.3337 93.6002 59.3337 95.2354ZM54.9776 97.0448H55.8622C56.7284 97.0448 57.3533 96.9074 57.7387 96.6293C58.1274 96.3479 58.3217 95.8989 58.3217 95.2823C58.3217 94.7244 58.1374 94.3089 57.7722 94.0358C57.4103 93.7644 56.844 93.627 56.0767 93.627H54.9776V97.0448Z" fill="#1E517B"/>
    <path d="M70.3939 101.193L69.3484 98.5191H65.9775L64.9455 101.193H63.9536L67.2776 92.749H68.1019L71.4058 101.193H70.3939ZM69.0469 97.6412L68.0684 95.0343C67.9377 94.7042 67.8071 94.3005 67.673 93.8213C67.5876 94.1882 67.4669 94.592 67.3111 95.0343L66.326 97.6412H69.0469Z" fill="#1E517B"/>
    <path d="M77.554 97.6949V101.193H76.5823V92.7826H78.8876C79.9197 92.7826 80.6803 92.982 81.1729 93.379C81.6638 93.7728 81.9101 94.3675 81.9101 95.1617C81.9101 96.2708 81.3471 97.0214 80.2213 97.4134L82.5065 101.193H81.3471L79.3098 97.6949H77.554ZM77.554 96.8572H78.8943C79.5863 96.8572 80.0939 96.7215 80.4156 96.4484C80.7373 96.1719 80.8981 95.7581 80.8981 95.2086C80.8981 94.6557 80.7323 94.2553 80.4022 94.009C80.0755 93.7644 79.5511 93.6404 78.8273 93.6404H77.554V96.8572Z" fill="#1E517B"/>
    <path d="M90.466 101.193H89.4876V93.6538H86.8203V92.7826H93.1265V93.6538H90.466V101.193Z" fill="#1E517B"/>
    <path d="M104.979 101.193H103.86L99.2625 94.1363H99.2223C99.2792 94.964 99.3094 95.7229 99.3094 96.4149V101.193H98.4114V92.7826H99.5104L104.094 99.8126H104.141C104.136 99.7104 104.121 99.377 104.094 98.8141C104.068 98.2511 104.056 97.849 104.061 97.6078V92.7826H104.979V101.193Z" fill="#1E517B"/>
    <path d="M115.991 101.193H111.307V92.7826H115.991V93.6538H112.278V96.3613H115.77V97.2258H112.278V100.322H115.991V101.193Z" fill="#1E517B"/>
    <path d="M122.845 97.6949V101.193H121.873V92.7826H124.179C125.211 92.7826 125.971 92.982 126.464 93.379C126.955 93.7728 127.201 94.3675 127.201 95.1617C127.201 96.2708 126.638 97.0214 125.512 97.4134L127.798 101.193H126.638L124.601 97.6949H122.845ZM122.845 96.8572H124.185C124.877 96.8572 125.385 96.7215 125.707 96.4484C126.028 96.1719 126.189 95.7581 126.189 95.2086C126.189 94.6557 126.023 94.2553 125.693 94.009C125.367 93.7644 124.842 93.6404 124.118 93.6404H122.845V96.8572Z" fill="#1E517B"/>
    <path d="M137.915 98.9548C137.915 99.697 137.643 100.275 137.104 100.691C136.568 101.103 135.839 101.307 134.919 101.307C133.922 101.307 133.157 101.18 132.621 100.925V99.9802C132.964 100.124 133.339 100.238 133.746 100.322C134.152 100.407 134.557 100.449 134.959 100.449C135.606 100.449 136.095 100.327 136.427 100.081C136.757 99.8361 136.923 99.491 136.923 99.0486C136.923 98.7588 136.864 98.5192 136.749 98.3316C136.632 98.1439 136.436 97.973 136.159 97.8155C135.886 97.6597 135.47 97.4805 134.913 97.2794C134.13 97.003 133.569 96.6729 133.23 96.2876C132.895 95.9039 132.728 95.403 132.728 94.7864C132.728 94.1397 132.971 93.6237 133.458 93.2383C133.944 92.8547 134.591 92.662 135.395 92.662C136.229 92.662 136.998 92.8161 137.7 93.1244L137.392 93.9755C136.699 93.6806 136.025 93.5332 135.368 93.5332C134.849 93.5332 134.445 93.6455 134.155 93.8683C133.864 94.0928 133.72 94.4011 133.72 94.7931C133.72 95.088 133.773 95.3292 133.881 95.5169C133.988 95.7012 134.169 95.8704 134.423 96.0262C134.678 96.1787 135.068 96.3512 135.596 96.5422C136.476 96.8555 137.081 97.1923 137.412 97.5542C137.747 97.9127 137.915 98.3785 137.915 98.9548Z" fill="#1E517B"/>
    <mask id="mask0_567_197" style="mask-type:luminance" maskUnits="userSpaceOnUse" x="38" y="38" width="61" height="42">
      <path d="M38.7458 38.8025H98.578V79.7763H38.7458V38.8025Z" fill="white"/>
    </mask>
    <g mask="url(#mask0_567_197)">
      <path d="M98.5662 39.3754C98.5595 39.2984 98.536 39.2213 98.5008 39.1425C98.4874 39.1191 98.4824 39.0956 98.464 39.0772C98.4523 39.0655 98.4523 39.047 98.4405 39.0353C98.3869 38.97 98.3149 38.9164 98.2428 38.8795C98.2361 38.8795 98.2361 38.8745 98.2361 38.8745C98.2244 38.8678 98.2127 38.8745 98.2009 38.8678C98.1239 38.8376 98.0401 38.8259 97.9496 38.8259C97.9195 38.8259 97.896 38.8259 97.8659 38.8326C97.7704 38.8493 97.6749 38.8862 97.5961 38.9515L68.6618 62.8764L39.7275 38.9515C39.6438 38.8862 39.5483 38.8493 39.4511 38.8326C39.4276 38.8259 39.4042 38.8259 39.3807 38.8259C39.2902 38.8192 39.2065 38.8326 39.1227 38.8678C39.111 38.8745 39.0993 38.8678 39.0925 38.8745C39.0875 38.8745 39.0875 38.8795 39.0875 38.8795C39.0155 38.9164 38.9434 38.9633 38.8898 39.0353C38.8781 39.047 38.8781 39.0655 38.8647 39.0772C38.8479 39.1007 38.8412 39.1191 38.8295 39.1425C38.7943 39.2146 38.7692 39.2916 38.7642 39.3754C38.7642 39.3938 38.7524 39.4056 38.7524 39.4173V79.0658C38.7524 79.3959 39.0205 79.664 39.3506 79.664C39.6789 79.664 39.9487 79.3959 39.9487 79.0658V40.6856L49.8621 48.88C48.3073 51.8639 47.4813 55.2013 47.4813 58.5756C47.4813 70.2029 56.9893 79.664 68.6685 79.664C80.3478 79.664 89.849 70.208 89.8541 58.5873C89.8541 58.5806 89.8541 58.5756 89.8541 58.5756C89.8541 58.2472 89.5843 57.9775 89.2559 57.9775H81.6697C81.3396 57.9775 81.0716 58.2472 81.0716 58.5756C81.0716 58.904 81.3396 59.1737 81.6697 59.1737H88.6226C88.2993 69.8678 79.4799 78.4677 68.6618 78.4677C57.641 78.4677 48.6725 69.5445 48.6725 58.5756C48.6725 55.4828 49.4131 52.4201 50.802 49.6641L68.2849 64.1145C68.3033 64.1312 68.3267 64.1379 68.3502 64.1497C68.3686 64.1614 68.3871 64.1798 68.4038 64.1849C68.4172 64.1916 68.4289 64.1916 68.4407 64.1983C68.4591 64.2033 68.4708 64.21 68.4876 64.215C68.506 64.2217 68.5244 64.2217 68.5479 64.2267C68.5546 64.2267 68.5596 64.2267 68.5596 64.2267C68.5848 64.2334 68.6132 64.2401 68.6384 64.2401C68.6501 64.2401 68.6551 64.2452 68.6685 64.2452C68.6803 64.2452 68.692 64.2401 68.7037 64.2401C68.7272 64.2401 68.7523 64.2334 68.7758 64.2267H68.7808C68.8059 64.2217 68.8294 64.2217 68.8528 64.215C68.8712 64.21 68.883 64.2033 68.8947 64.1983C68.9064 64.1916 68.9198 64.1916 68.9316 64.1849C68.9483 64.1731 68.9667 64.1614 68.9852 64.1497C69.0086 64.1379 69.0271 64.1312 69.0505 64.1145L97.3817 40.6856V79.0658C97.3817 79.3959 97.6497 79.664 97.9798 79.664C98.3082 79.664 98.5779 79.3959 98.5779 79.0658V39.4173C98.5779 39.4006 98.5662 39.3888 98.5662 39.3754Z" fill="#1E517B"/>
    </g>
    <mask id="mask1_567_197" style="mask-type:luminance" maskUnits="userSpaceOnUse" x="55" y="37" width="28" height="7">
      <path d="M55.1514 37.3147H82.1723V43.0915H55.1514V37.3147Z" fill="white"/>
    </mask>
    <g mask="url(#mask1_567_197)">
      <path d="M56.0124 43.0061C56.1381 43.0061 56.2705 42.9642 56.3777 42.8804C59.9329 40.1361 64.1801 38.6818 68.6618 38.6818C73.1485 38.6818 77.3973 40.1294 80.9459 42.8687C81.2089 43.0731 81.5859 43.0245 81.7836 42.7615C81.9863 42.4984 81.9377 42.1282 81.6747 41.9238C77.9184 39.0236 73.4183 37.4856 68.6618 37.4856C63.9103 37.4856 59.4118 39.0236 55.6489 41.9355C55.3858 42.1399 55.3373 42.5168 55.54 42.7732C55.6606 42.929 55.8332 43.0061 56.0124 43.0061Z" fill="#1E517B"/>
    </g>
  </symbol>
</svg>
