<svg width="1500" height="1500" viewBox="0 0 1500 1500" fill="none" xmlns="http://www.w3.org/2000/svg">
  <symbol id="mgPartnersWhite-logo" viewBox="0 0 1500 1500">
    <rect width="1500" height="1500" fill="#280A0B"/>
    <path d="M513.476 866.642L503.132 839.641H502.962C503.157 841.778 503.254 844.321 503.254 847.265V866.642H500V836.169H505.318L514.982 861.3H515.152L524.864 836.169H530.157V866.642H526.637V846.998C526.637 844.752 526.734 842.306 526.928 839.665H526.758L516.341 866.642H513.476Z" fill="#FEF8EE"/>
    <path d="M566.456 850.665H576.824V865.501C575.221 866.023 573.582 866.411 571.919 866.666C570.25 866.921 568.313 867.055 566.116 867.055C561.503 867.055 557.909 865.689 555.335 862.951C552.761 860.201 551.474 856.359 551.474 851.417C551.474 848.249 552.106 845.469 553.368 843.089C554.643 840.697 556.482 838.876 558.88 837.626C561.272 836.363 564.076 835.732 567.281 835.732C570.535 835.732 573.558 836.333 576.363 837.529L575.003 840.661C572.247 839.483 569.6 838.888 567.063 838.888C563.336 838.888 560.434 839.999 558.346 842.215C556.27 844.418 555.238 847.484 555.238 851.417C555.238 855.533 556.24 858.647 558.249 860.766C560.252 862.89 563.202 863.947 567.087 863.947C569.206 863.947 571.27 863.704 573.279 863.218V853.846H566.456V850.665Z" fill="#FEF8EE"/>
    <path d="M628.753 842.239C628.753 843.198 629.002 844.109 629.506 844.983C630.003 845.845 630.865 846.889 632.079 848.115C633.876 847.083 635.121 846.118 635.819 845.226C636.511 844.339 636.863 843.32 636.863 842.166C636.863 841.098 636.505 840.236 635.794 839.568C635.078 838.888 634.125 838.548 632.929 838.548C631.697 838.548 630.695 838.882 629.918 839.544C629.141 840.212 628.753 841.11 628.753 842.239ZM631.982 863.947C635.333 863.947 638.113 862.878 640.335 860.741L631.23 851.903C629.676 852.844 628.571 853.627 627.927 854.258C627.296 854.877 626.822 855.539 626.519 856.249C626.228 856.947 626.082 857.749 626.082 858.653C626.082 860.292 626.616 861.585 627.684 862.538C628.765 863.479 630.198 863.947 631.982 863.947ZM622.488 858.75C622.488 856.941 622.962 855.339 623.921 853.943C624.892 852.553 626.628 851.15 629.141 849.742C627.958 848.419 627.156 847.411 626.738 846.731C626.313 846.051 625.973 845.347 625.718 844.619C625.475 843.878 625.353 843.107 625.353 842.312C625.353 840.224 626.033 838.597 627.393 837.431C628.753 836.266 630.647 835.683 633.075 835.683C635.321 835.683 637.093 836.266 638.393 837.431C639.685 838.597 640.335 840.218 640.335 842.288C640.335 843.763 639.855 845.129 638.902 846.391C637.962 847.654 636.401 848.935 634.216 850.228L642.715 858.362C643.492 857.506 644.105 856.504 644.56 855.351C645.027 854.185 645.422 852.917 645.75 851.539H649.246C648.305 855.509 646.879 858.52 644.973 860.571L651.213 866.642H646.43L642.569 862.927C640.93 864.402 639.267 865.464 637.567 866.108C635.879 866.739 633.998 867.055 631.909 867.055C628.911 867.055 626.592 866.32 624.941 864.845C623.302 863.376 622.488 861.342 622.488 858.75Z" fill="#FEF8EE"/>
    <path d="M714.977 845.056C714.977 848.133 713.921 850.507 711.821 852.17C709.714 853.821 706.703 854.647 702.788 854.647H699.194V866.642H695.674V836.169H703.565C711.171 836.169 714.977 839.131 714.977 845.056ZM699.194 851.612H702.399C705.538 851.612 707.802 851.114 709.198 850.106C710.607 849.086 711.311 847.46 711.311 845.226C711.311 843.204 710.643 841.699 709.32 840.709C708.008 839.726 705.957 839.228 703.176 839.228H699.194V851.612Z" fill="#FEF8EE"/>
    <path d="M755.05 866.642L751.262 856.954H739.049L735.31 866.642H731.716L743.76 836.047H746.746L758.717 866.642H755.05ZM750.17 853.773L746.625 844.327C746.151 843.131 745.678 841.668 745.192 839.932C744.883 841.262 744.446 842.725 743.881 844.327L740.312 853.773H750.17Z" fill="#FEF8EE"/>
    <path d="M780.993 853.967V866.642H777.472V836.169H785.825C789.564 836.169 792.32 836.891 794.105 838.33C795.883 839.756 796.776 841.911 796.776 844.789C796.776 848.807 794.736 851.527 790.657 852.947L798.937 866.642H794.736L787.355 853.967H780.993ZM780.993 850.932H785.849C788.356 850.932 790.196 850.44 791.361 849.451C792.527 848.449 793.109 846.95 793.109 844.959C793.109 842.955 792.508 841.505 791.312 840.612C790.129 839.726 788.229 839.277 785.606 839.277H780.993V850.932Z" fill="#FEF8EE"/>
    <path d="M827.775 866.642H824.23V839.325H814.566V836.169H837.415V839.325H827.775V866.642Z" fill="#FEF8EE"/>
    <path d="M880.358 866.642H876.303L859.646 841.074H859.501C859.707 844.072 859.816 846.822 859.816 849.329V866.642H856.562V836.169H860.545L877.153 861.64H877.323C877.305 861.27 877.25 860.062 877.153 858.022C877.056 855.982 877.013 854.525 877.032 853.651V836.169H880.358V866.642Z" fill="#FEF8EE"/>
    <path d="M920.258 866.642H903.285V836.169H920.258V839.325H906.806V849.135H919.456V852.267H906.806V863.485H920.258V866.642Z" fill="#FEF8EE"/>
    <path d="M945.091 853.967V866.642H941.57V836.169H949.923C953.662 836.169 956.418 836.891 958.202 838.33C959.981 839.756 960.873 841.911 960.873 844.789C960.873 848.807 958.834 851.527 954.755 852.947L963.034 866.642H958.834L951.452 853.967H945.091ZM945.091 850.932H949.947C952.454 850.932 954.293 850.44 955.459 849.451C956.624 848.449 957.207 846.95 957.207 844.959C957.207 842.955 956.606 841.505 955.41 840.612C954.226 839.726 952.326 839.277 949.704 839.277H945.091V850.932Z" fill="#FEF8EE"/>
    <path d="M999.691 858.532C999.691 861.221 998.708 863.315 996.753 864.821C994.811 866.314 992.17 867.055 988.838 867.055C985.226 867.055 982.452 866.593 980.509 865.671V862.247C981.754 862.769 983.113 863.182 984.589 863.485C986.058 863.795 987.527 863.947 988.983 863.947C991.327 863.947 993.099 863.503 994.301 862.611C995.497 861.725 996.098 860.474 996.098 858.872C996.098 857.822 995.885 856.954 995.467 856.274C995.042 855.594 994.331 854.975 993.33 854.404C992.34 853.84 990.835 853.19 988.813 852.462C985.979 851.46 983.945 850.264 982.719 848.868C981.505 847.478 980.898 845.663 980.898 843.429C980.898 841.086 981.778 839.216 983.544 837.82C985.305 836.43 987.648 835.732 990.562 835.732C993.585 835.732 996.371 836.29 998.914 837.407L997.798 840.491C995.284 839.423 992.844 838.888 990.465 838.888C988.583 838.888 987.12 839.295 986.07 840.102C985.013 840.916 984.491 842.033 984.491 843.453C984.491 844.522 984.686 845.396 985.074 846.076C985.463 846.743 986.118 847.356 987.041 847.921C987.964 848.473 989.378 849.099 991.29 849.791C994.477 850.926 996.668 852.146 997.87 853.457C999.084 854.756 999.691 856.444 999.691 858.532Z" fill="#FEF8EE"/>
    <mask id="mask0_42_58" style="mask-type:luminance" maskUnits="userSpaceOnUse" x="640" y="640" width="218" height="150">
      <path d="M640.383 640.589H857.167V789.044H640.383V640.589Z" fill="white"/>
    </mask>
    <g mask="url(#mask0_42_58)">
      <path d="M857.124 642.665C857.1 642.385 857.015 642.106 856.887 641.821C856.839 641.736 856.82 641.651 856.754 641.584C856.711 641.542 856.711 641.475 856.669 641.432C856.474 641.196 856.213 641.001 855.952 640.868C855.928 640.868 855.928 640.85 855.928 640.85C855.886 640.825 855.843 640.85 855.801 640.825C855.521 640.716 855.218 640.674 854.89 640.674C854.781 640.674 854.696 640.674 854.587 640.698C854.241 640.759 853.895 640.892 853.609 641.129L748.775 727.813L643.94 641.129C643.637 640.892 643.291 640.759 642.939 640.698C642.854 640.674 642.769 640.674 642.684 640.674C642.356 640.649 642.053 640.698 641.749 640.825C641.707 640.85 641.664 640.825 641.64 640.85C641.622 640.85 641.622 640.868 641.622 640.868C641.361 641.001 641.099 641.171 640.905 641.432C640.863 641.475 640.863 641.542 640.814 641.584C640.753 641.669 640.729 641.736 640.687 641.821C640.559 642.082 640.468 642.361 640.45 642.665C640.45 642.731 640.407 642.774 640.407 642.816V786.47C640.407 787.666 641.379 788.638 642.575 788.638C643.764 788.638 644.742 787.666 644.742 786.47V647.412L680.66 677.102C675.026 687.913 672.034 700.005 672.034 712.23C672.034 754.358 706.483 788.638 748.799 788.638C791.115 788.638 825.54 754.377 825.558 712.273C825.558 712.249 825.558 712.23 825.558 712.23C825.558 711.041 824.581 710.063 823.391 710.063H795.905C794.709 710.063 793.738 711.041 793.738 712.23C793.738 713.42 794.709 714.398 795.905 714.398H821.097C819.925 753.144 787.971 784.303 748.775 784.303C708.844 784.303 676.35 751.973 676.35 712.23C676.35 701.025 679.033 689.928 684.065 679.942L747.409 732.299C747.476 732.36 747.561 732.384 747.646 732.426C747.712 732.469 747.779 732.536 747.84 732.554C747.889 732.578 747.931 732.578 747.974 732.602C748.04 732.621 748.083 732.645 748.143 732.663C748.21 732.687 748.277 732.687 748.362 732.706C748.386 732.706 748.405 732.706 748.405 732.706C748.496 732.73 748.599 732.754 748.69 732.754C748.732 732.754 748.751 732.772 748.799 732.772C748.842 732.772 748.884 732.754 748.927 732.754C749.012 732.754 749.103 732.73 749.188 732.706H749.206C749.297 732.687 749.382 732.687 749.467 732.663C749.534 732.645 749.576 732.621 749.619 732.602C749.661 732.578 749.71 732.578 749.752 732.554C749.813 732.511 749.88 732.469 749.946 732.426C750.031 732.384 750.098 732.36 750.183 732.299L852.832 647.412V786.47C852.832 787.666 853.803 788.638 854.999 788.638C856.189 788.638 857.166 787.666 857.166 786.47V642.816C857.166 642.756 857.124 642.713 857.124 642.665Z" fill="#FEF8EE"/>
    </g>
    <mask id="mask1_42_58" style="mask-type:luminance" maskUnits="userSpaceOnUse" x="699" y="635" width="99" height="22">
      <path d="M699.824 635.198H797.726V656.129H699.824V635.198Z" fill="white"/>
    </mask>
    <g mask="url(#mask1_42_58)">
      <path d="M702.944 655.819C703.399 655.819 703.879 655.667 704.267 655.364C717.148 645.421 732.537 640.151 748.775 640.151C765.031 640.151 780.425 645.396 793.282 655.321C794.235 656.062 795.601 655.886 796.318 654.933C797.052 653.98 796.876 652.638 795.923 651.898C782.313 641.39 766.008 635.817 748.775 635.817C731.559 635.817 715.261 641.39 701.627 651.94C700.674 652.681 700.498 654.046 701.232 654.975C701.669 655.54 702.294 655.819 702.944 655.819Z" fill="#FEF8EE"/>
    </g>
  </symbol>
</svg>
